<svg xmlns="http://www.w3.org/2000/svg" width="680" height="280" viewBox="0 0 680 280">
<style>
text { font-family: monospace; font-size: 18px; font-weight: 900; }
.on  { fill: #111827; }
.off { fill: #d1d5db; }
@media (prefers-color-scheme: dark) {
  .on  { fill: #f9fafb; }
  .off { fill: #374151; }
}
</style>
<!-- D -->
<text class="on"  x="36"  y="50">1</text><text class="on"  x="58"  y="50">1</text><text class="off" x="80"  y="50">0</text><text class="off" x="102" y="50">0</text>
<text class="on"  x="36"  y="76">1</text><text class="off" x="58"  y="76">0</text><text class="on"  x="80"  y="76">1</text><text class="off" x="102" y="76">0</text>
<text class="on"  x="36"  y="102">1</text><text class="off" x="58"  y="102">0</text><text class="off" x="80"  y="102">0</text><text class="on"  x="102" y="102">1</text>
<text class="on"  x="36"  y="128">1</text><text class="off" x="58"  y="128">0</text><text class="off" x="80"  y="128">0</text><text class="on"  x="102" y="128">1</text>
<text class="on"  x="36"  y="154">1</text><text class="off" x="58"  y="154">0</text><text class="off" x="80"  y="154">0</text><text class="on"  x="102" y="154">1</text>
<text class="on"  x="36"  y="180">1</text><text class="off" x="58"  y="180">0</text><text class="on"  x="80"  y="180">1</text><text class="off" x="102" y="180">0</text>
<text class="on"  x="36"  y="206">1</text><text class="on"  x="58"  y="206">1</text><text class="off" x="80"  y="206">0</text><text class="off" x="102" y="206">0</text>
<!-- O -->
<text class="off" x="140" y="50">0</text><text class="on"  x="162" y="50">1</text><text class="on"  x="184" y="50">1</text><text class="off" x="206" y="50">0</text>
<text class="on"  x="140" y="76">1</text><text class="off" x="162" y="76">0</text><text class="off" x="184" y="76">0</text><text class="on"  x="206" y="76">1</text>
<text class="on"  x="140" y="102">1</text><text class="off" x="162" y="102">0</text><text class="off" x="184" y="102">0</text><text class="on"  x="206" y="102">1</text>
<text class="on"  x="140" y="128">1</text><text class="off" x="162" y="128">0</text><text class="off" x="184" y="128">0</text><text class="on"  x="206" y="128">1</text>
<text class="on"  x="140" y="154">1</text><text class="off" x="162" y="154">0</text><text class="off" x="184" y="154">0</text><text class="on"  x="206" y="154">1</text>
<text class="on"  x="140" y="180">1</text><text class="off" x="162" y="180">0</text><text class="off" x="184" y="180">0</text><text class="on"  x="206" y="180">1</text>
<text class="off" x="140" y="206">0</text><text class="on"  x="162" y="206">1</text><text class="on"  x="184" y="206">1</text><text class="off" x="206" y="206">0</text>
<!-- P -->
<text class="on"  x="244" y="50">1</text><text class="on"  x="266" y="50">1</text><text class="on"  x="288" y="50">1</text><text class="off" x="310" y="50">0</text>
<text class="on"  x="244" y="76">1</text><text class="off" x="266" y="76">0</text><text class="off" x="288" y="76">0</text><text class="on"  x="310" y="76">1</text>
<text class="on"  x="244" y="102">1</text><text class="off" x="266" y="102">0</text><text class="off" x="288" y="102">0</text><text class="on"  x="310" y="102">1</text>
<text class="on"  x="244" y="128">1</text><text class="on"  x="266" y="128">1</text><text class="on"  x="288" y="128">1</text><text class="off" x="310" y="128">0</text>
<text class="on"  x="244" y="154">1</text><text class="off" x="266" y="154">0</text><text class="off" x="288" y="154">0</text><text class="off" x="310" y="154">0</text>
<text class="on"  x="244" y="180">1</text><text class="off" x="266" y="180">0</text><text class="off" x="288" y="180">0</text><text class="off" x="310" y="180">0</text>
<text class="on"  x="244" y="206">1</text><text class="off" x="266" y="206">0</text><text class="off" x="288" y="206">0</text><text class="off" x="310" y="206">0</text>
<!-- P -->
<text class="on"  x="348" y="50">1</text><text class="on"  x="370" y="50">1</text><text class="on"  x="392" y="50">1</text><text class="off" x="414" y="50">0</text>
<text class="on"  x="348" y="76">1</text><text class="off" x="370" y="76">0</text><text class="off" x="392" y="76">0</text><text class="on"  x="414" y="76">1</text>
<text class="on"  x="348" y="102">1</text><text class="off" x="370" y="102">0</text><text class="off" x="392" y="102">0</text><text class="on"  x="414" y="102">1</text>
<text class="on"  x="348" y="128">1</text><text class="on"  x="370" y="128">1</text><text class="on"  x="392" y="128">1</text><text class="off" x="414" y="128">0</text>
<text class="on"  x="348" y="154">1</text><text class="off" x="370" y="154">0</text><text class="off" x="392" y="154">0</text><text class="off" x="414" y="154">0</text>
<text class="on"  x="348" y="180">1</text><text class="off" x="370" y="180">0</text><text class="off" x="392" y="180">0</text><text class="off" x="414" y="180">0</text>
<text class="on"  x="348" y="206">1</text><text class="off" x="370" y="206">0</text><text class="off" x="392" y="206">0</text><text class="off" x="414" y="206">0</text>
<!-- A -->
<text class="off" x="452" y="50">0</text><text class="on"  x="474" y="50">1</text><text class="on"  x="496" y="50">1</text><text class="off" x="518" y="50">0</text>
<text class="on"  x="452" y="76">1</text><text class="off" x="474" y="76">0</text><text class="off" x="496" y="76">0</text><text class="on"  x="518" y="76">1</text>
<text class="on"  x="452" y="102">1</text><text class="off" x="474" y="102">0</text><text class="off" x="496" y="102">0</text><text class="on"  x="518" y="102">1</text>
<text class="on"  x="452" y="128">1</text><text class="on"  x="474" y="128">1</text><text class="on"  x="496" y="128">1</text><text class="on"  x="518" y="128">1</text>
<text class="on"  x="452" y="154">1</text><text class="off" x="474" y="154">0</text><text class="off" x="496" y="154">0</text><text class="on"  x="518" y="154">1</text>
<text class="on"  x="452" y="180">1</text><text class="off" x="474" y="180">0</text><text class="off" x="496" y="180">0</text><text class="on"  x="518" y="180">1</text>
<text class="on"  x="452" y="206">1</text><text class="off" x="474" y="206">0</text><text class="off" x="496" y="206">0</text><text class="on"  x="518" y="206">1</text>
<!-- R -->
<text class="on"  x="556" y="50">1</text><text class="on"  x="578" y="50">1</text><text class="on"  x="600" y="50">1</text><text class="off" x="622" y="50">0</text>
<text class="on"  x="556" y="76">1</text><text class="off" x="578" y="76">0</text><text class="off" x="600" y="76">0</text><text class="on"  x="622" y="76">1</text>
<text class="on"  x="556" y="102">1</text><text class="off" x="578" y="102">0</text><text class="off" x="600" y="102">0</text><text class="on"  x="622" y="102">1</text>
<text class="on"  x="556" y="128">1</text><text class="on"  x="578" y="128">1</text><text class="on"  x="600" y="128">1</text><text class="off" x="622" y="128">0</text>
<text class="on"  x="556" y="154">1</text><text class="off" x="578" y="154">0</text><text class="on"  x="600" y="154">1</text><text class="off" x="622" y="154">0</text>
<text class="on"  x="556" y="180">1</text><text class="off" x="578" y="180">0</text><text class="off" x="600" y="180">0</text><text class="on"  x="622" y="180">1</text>
<text class="on"  x="556" y="206">1</text><text class="off" x="578" y="206">0</text><text class="off" x="600" y="206">0</text><text class="on"  x="622" y="206">1</text>
</svg>
